<svg width="30" height="26" viewBox="0 0 30 26" fill="none" xmlns="http://www.w3.org/2000/svg">
<path d="M15.612 0.705264C15.4346 0.572242 15.216 0.5 14.991 0.5C14.766 0.5 14.5474 0.572242 14.37 0.705264L0 11.4795L1.243 12.9911L3 11.6738V23.5769C3.00106 24.0866 3.21211 24.5752 3.58695 24.9356C3.9618 25.296 4.46989 25.499 5 25.5H25C25.5301 25.499 26.0382 25.296 26.413 24.9356C26.7879 24.5752 26.9989 24.0866 27 23.5769V11.6824L28.757 12.9997L30 11.4882L15.612 0.705264ZM17 23.5769H13V15.8844H17V23.5769ZM19 23.5769V15.8844C18.9995 15.3745 18.7886 14.8857 18.4136 14.5251C18.0387 14.1646 17.5303 13.9618 17 13.9613H13C12.4697 13.9618 11.9613 14.1646 11.5864 14.5251C11.2114 14.8857 11.0005 15.3745 11 15.8844V23.5769H5V10.1747L15 2.68415L25 10.1843V23.5769H19Z" fill="#4DC090"/>
</svg>
