<svg width="30" height="26" viewBox="0 0 30 26" fill="none" xmlns="http://www.w3.org/2000/svg">
<path d="M5.625 7.23077C5.625 6.97575 5.72377 6.73118 5.89959 6.55086C6.0754 6.37054 6.31386 6.26923 6.5625 6.26923H19.6875C19.9361 6.26923 20.1746 6.37054 20.3504 6.55086C20.5262 6.73118 20.625 6.97575 20.625 7.23077C20.625 7.48579 20.5262 7.73036 20.3504 7.91068C20.1746 8.091 19.9361 8.19231 19.6875 8.19231H6.5625C6.31386 8.19231 6.0754 8.091 5.89959 7.91068C5.72377 7.73036 5.625 7.48579 5.625 7.23077ZM15.9375 12.0385C15.6889 12.0385 15.4504 12.1398 15.2746 12.3201C15.0988 12.5004 15 12.745 15 13C15 13.255 15.0988 13.4996 15.2746 13.6799C15.4504 13.8602 15.6889 13.9615 15.9375 13.9615H19.6875C19.9361 13.9615 20.1746 13.8602 20.3504 13.6799C20.5262 13.4996 20.625 13.255 20.625 13C20.625 12.745 20.5262 12.5004 20.3504 12.3201C20.1746 12.1398 19.9361 12.0385 19.6875 12.0385H15.9375ZM15 18.7692C15 18.5142 15.0988 18.2696 15.2746 18.0893C15.4504 17.909 15.6889 17.8077 15.9375 17.8077H19.6875C19.9361 17.8077 20.1746 17.909 20.3504 18.0893C20.5262 18.2696 20.625 18.5142 20.625 18.7692C20.625 19.0242 20.5262 19.2688 20.3504 19.4491C20.1746 19.6295 19.9361 19.7308 19.6875 19.7308H15.9375C15.6889 19.7308 15.4504 19.6295 15.2746 19.4491C15.0988 19.2688 15 19.0242 15 18.7692ZM6.5625 12.0385C6.31386 12.0385 6.0754 12.1398 5.89959 12.3201C5.72377 12.5004 5.625 12.745 5.625 13V18.7692C5.625 19.0242 5.72377 19.2688 5.89959 19.4491C6.0754 19.6295 6.31386 19.7308 6.5625 19.7308H12.1875C12.4361 19.7308 12.6746 19.6295 12.8504 19.4491C13.0262 19.2688 13.125 19.0242 13.125 18.7692V13C13.125 12.745 13.0262 12.5004 12.8504 12.3201C12.6746 12.1398 12.4361 12.0385 12.1875 12.0385H6.5625ZM7.5 17.8077V13.9615H11.25V17.8077H7.5ZM0 4.34615C0 3.32609 0.395088 2.34781 1.09835 1.62651C1.80161 0.905218 2.75544 0.5 3.75 0.5H22.5C23.4946 0.5 24.4484 0.905218 25.1516 1.62651C25.8549 2.34781 26.25 3.32609 26.25 4.34615V6.26923C27.2446 6.26923 28.1984 6.67445 28.9016 7.39574C29.6049 8.11704 30 9.09532 30 10.1154V20.6923C30 21.9674 29.5061 23.1902 28.6271 24.0919C27.748 24.9935 26.5557 25.5 25.3125 25.5H4.6875C3.4443 25.5 2.25201 24.9935 1.37294 24.0919C0.49386 23.1902 0 21.9674 0 20.6923V4.34615ZM24.375 4.34615C24.375 3.83612 24.1775 3.34698 23.8258 2.98633C23.4742 2.62569 22.9973 2.42308 22.5 2.42308H3.75C3.25272 2.42308 2.77581 2.62569 2.42417 2.98633C2.07254 3.34698 1.875 3.83612 1.875 4.34615V20.6923C1.875 21.4574 2.17132 22.1911 2.69876 22.732C3.22621 23.273 3.94158 23.5769 4.6875 23.5769H25.3125C26.0584 23.5769 26.7738 23.273 27.3012 22.732C27.8287 22.1911 28.125 21.4574 28.125 20.6923V10.1154C28.125 9.60535 27.9275 9.11621 27.5758 8.75556C27.2242 8.39492 26.7473 8.19231 26.25 8.19231V20.6923C26.25 20.9473 26.1512 21.1919 25.9754 21.3722C25.7996 21.5525 25.5611 21.6538 25.3125 21.6538C25.0639 21.6538 24.8254 21.5525 24.6496 21.3722C24.4738 21.1919 24.375 20.9473 24.375 20.6923V4.34615Z" fill="white" fill-opacity="0.53"/>
</svg>
