<svg width="55" height="55" viewBox="0 0 55 55" fill="none" xmlns="http://www.w3.org/2000/svg">
<rect x="0.5" y="0.5" width="54" height="54" rx="27" fill="white" fill-opacity="0.04"/>
<path fill-rule="evenodd" clip-rule="evenodd" d="M12.29 17.8941C12.1042 18.08 11.9999 18.332 12 18.5947C12.0001 18.8575 12.1045 19.1094 12.2904 19.2951C12.4762 19.4809 12.7283 19.5852 12.991 19.5851C13.2538 19.585 13.5057 19.4806 13.6914 19.2947L14.3918 18.5944L17.8933 22.0959L15.0921 24.898C14.9975 24.9894 14.922 25.0987 14.8701 25.2195C14.8182 25.3404 14.7909 25.4704 14.7898 25.6019C14.7886 25.7334 14.8137 25.8638 14.8635 25.9855C14.9133 26.1073 14.9868 26.2179 15.0798 26.3109C15.1728 26.4039 15.2834 26.4774 15.4052 26.5272C15.5269 26.577 15.6573 26.6021 15.7888 26.6009C15.9204 26.5998 16.0503 26.5725 16.1712 26.5206C16.292 26.4687 16.4013 26.3932 16.4927 26.2986L17.8933 24.898L29.8021 36.8066C30.4836 37.4881 31.349 37.9561 32.2924 38.1532C33.2358 38.3502 34.2163 38.2679 35.1136 37.9162L36.1067 38.9084C36.3525 39.1544 36.6588 39.3312 36.9947 39.4213C37.3306 39.5113 37.6842 39.5113 38.0201 39.4212L40.3086 41.7096C40.4005 41.8016 40.5097 41.8747 40.6299 41.9245C40.7501 41.9743 40.8789 42 41.009 42C41.1391 42 41.2679 41.9745 41.3881 41.9247C41.5084 41.875 41.6176 41.802 41.7096 41.71C41.8016 41.6181 41.8746 41.5089 41.9245 41.3887C41.9743 41.2685 42 41.1397 42 41.0096C42 40.8795 41.9745 40.7507 41.9247 40.6305C41.875 40.5103 41.802 40.401 41.71 40.309L39.4208 38.0198C39.5107 37.6838 39.5106 37.3301 39.4204 36.9942C39.3302 36.6583 39.1532 36.3521 38.9071 36.1063L37.9157 35.1141C38.2677 34.2168 38.3503 33.2362 38.1533 32.2927C37.9564 31.3491 37.4885 30.4835 36.807 29.8019L24.8982 17.8932L26.2997 16.4926C26.3917 16.4006 26.4647 16.2914 26.5145 16.1711C26.5643 16.0509 26.5899 15.922 26.5899 15.7919C26.5899 15.6618 26.5643 15.5329 26.5145 15.4127C26.4647 15.2924 26.3917 15.1832 26.2997 15.0912C26.2077 14.9992 26.0984 14.9262 25.9782 14.8764C25.8579 14.8266 25.7291 14.8009 25.5989 14.8009C25.4688 14.8009 25.3399 14.8266 25.2197 14.8764C25.0995 14.9262 24.9902 14.9992 24.8982 15.0912L22.0969 17.8932L18.5954 14.3917L19.2948 13.6914C19.3868 13.5995 19.4599 13.4903 19.5097 13.3701C19.5595 13.2499 19.5852 13.1211 19.5852 12.991C19.5852 12.8609 19.5597 12.7321 19.5099 12.6118C19.4602 12.4916 19.3872 12.3824 19.2952 12.2904C19.2033 12.1984 19.0941 12.1254 18.9739 12.0755C18.8537 12.0257 18.7249 12 18.5948 12C18.4647 12 18.3359 12.0255 18.2157 12.0753C18.0954 12.125 17.9862 12.198 17.8942 12.29L12.29 17.8941ZM20.8855 19.1038L17.3839 15.6023L15.6032 17.383L19.1048 20.8845L20.8855 19.1038ZM23.6876 19.1038L19.1039 23.6875L22.876 27.4595L27.4597 22.8759L23.6876 19.1047V19.1038ZM24.2775 28.861L26.3785 30.9619L27.97 29.3704C28.062 29.2784 28.1713 29.2055 28.2915 29.1557C28.4117 29.106 28.5405 29.0804 28.6706 29.0804C28.8007 29.0805 28.9295 29.1061 29.0497 29.156C29.1699 29.2058 29.2791 29.2788 29.3711 29.3708C29.463 29.4628 29.536 29.5721 29.5857 29.6923C29.6355 29.8125 29.6611 29.9413 29.661 30.0714C29.661 30.2015 29.6353 30.3303 29.5855 30.4505C29.5357 30.5707 29.4627 30.6799 29.3706 30.7718L27.7799 32.3634L29.1806 33.764L30.7713 32.1716C30.8633 32.0796 30.9725 32.0066 31.0928 31.9568C31.213 31.907 31.3419 31.8813 31.472 31.8813C31.6021 31.8813 31.731 31.907 31.8512 31.9568C31.9715 32.0066 32.0807 32.0796 32.1727 32.1716C32.2648 32.2636 32.3378 32.3729 32.3876 32.4931C32.4374 32.6133 32.463 32.7422 32.463 32.8723C32.463 33.0025 32.4374 33.1313 32.3876 33.2516C32.3378 33.3718 32.2648 33.481 32.1727 33.5731L30.5812 35.1646L31.0127 35.5961C31.4588 36.0423 32.0256 36.3487 32.6433 36.4775C33.2611 36.6063 33.903 36.552 34.4903 36.3212L36.3216 34.49C36.5522 33.9026 36.6064 33.2606 36.4774 32.6429C36.3485 32.0251 36.042 31.4585 35.5956 31.0124L28.8604 24.2773L24.2775 28.861ZM37.7205 37.3443C37.7134 37.3346 37.7057 37.3255 37.6974 37.3169L36.9919 36.6114C36.8718 36.7449 36.7446 36.8718 36.6109 36.9916L37.3164 37.6978C37.3249 37.7063 37.3341 37.714 37.3438 37.721C37.4326 37.5634 37.5629 37.4331 37.7205 37.3443Z" fill="white"/>
<rect x="0.5" y="0.5" width="54" height="54" rx="27" stroke="white"/>
</svg>