<svg width="60" height="60" viewBox="0 0 60 60" fill="none" xmlns="http://www.w3.org/2000/svg">
<circle cx="30" cy="30" r="30" fill="white"/>
<path d="M21.625 23.7308C21.625 23.4758 21.7238 23.2312 21.8996 23.0509C22.0754 22.8705 22.3139 22.7692 22.5625 22.7692H35.6875C35.9361 22.7692 36.1746 22.8705 36.3504 23.0509C36.5262 23.2312 36.625 23.4758 36.625 23.7308C36.625 23.9858 36.5262 24.2304 36.3504 24.4107C36.1746 24.591 35.9361 24.6923 35.6875 24.6923H22.5625C22.3139 24.6923 22.0754 24.591 21.8996 24.4107C21.7238 24.2304 21.625 23.9858 21.625 23.7308ZM31.9375 28.5385C31.6889 28.5385 31.4504 28.6398 31.2746 28.8201C31.0988 29.0004 31 29.245 31 29.5C31 29.755 31.0988 29.9996 31.2746 30.1799C31.4504 30.3602 31.6889 30.4615 31.9375 30.4615H35.6875C35.9361 30.4615 36.1746 30.3602 36.3504 30.1799C36.5262 29.9996 36.625 29.755 36.625 29.5C36.625 29.245 36.5262 29.0004 36.3504 28.8201C36.1746 28.6398 35.9361 28.5385 35.6875 28.5385H31.9375ZM31 35.2692C31 35.0142 31.0988 34.7696 31.2746 34.5893C31.4504 34.409 31.6889 34.3077 31.9375 34.3077H35.6875C35.9361 34.3077 36.1746 34.409 36.3504 34.5893C36.5262 34.7696 36.625 35.0142 36.625 35.2692C36.625 35.5242 36.5262 35.7688 36.3504 35.9491C36.1746 36.1295 35.9361 36.2308 35.6875 36.2308H31.9375C31.6889 36.2308 31.4504 36.1295 31.2746 35.9491C31.0988 35.7688 31 35.5242 31 35.2692ZM22.5625 28.5385C22.3139 28.5385 22.0754 28.6398 21.8996 28.8201C21.7238 29.0004 21.625 29.245 21.625 29.5V35.2692C21.625 35.5242 21.7238 35.7688 21.8996 35.9491C22.0754 36.1295 22.3139 36.2308 22.5625 36.2308H28.1875C28.4361 36.2308 28.6746 36.1295 28.8504 35.9491C29.0262 35.7688 29.125 35.5242 29.125 35.2692V29.5C29.125 29.245 29.0262 29.0004 28.8504 28.8201C28.6746 28.6398 28.4361 28.5385 28.1875 28.5385H22.5625ZM23.5 34.3077V30.4615H27.25V34.3077H23.5ZM16 20.8462C16 19.8261 16.3951 18.8478 17.0983 18.1265C17.8016 17.4052 18.7554 17 19.75 17H38.5C39.4946 17 40.4484 17.4052 41.1516 18.1265C41.8549 18.8478 42.25 19.8261 42.25 20.8462V22.7692C43.2446 22.7692 44.1984 23.1744 44.9016 23.8957C45.6049 24.617 46 25.5953 46 26.6154V37.1923C46 38.4674 45.5061 39.6902 44.6271 40.5919C43.748 41.4935 42.5557 42 41.3125 42H20.6875C19.4443 42 18.252 41.4935 17.3729 40.5919C16.4939 39.6902 16 38.4674 16 37.1923V20.8462ZM40.375 20.8462C40.375 20.3361 40.1775 19.847 39.8258 19.4863C39.4742 19.1257 38.9973 18.9231 38.5 18.9231H19.75C19.2527 18.9231 18.7758 19.1257 18.4242 19.4863C18.0725 19.847 17.875 20.3361 17.875 20.8462V37.1923C17.875 37.9574 18.1713 38.6911 18.6988 39.232C19.2262 39.773 19.9416 40.0769 20.6875 40.0769H41.3125C42.0584 40.0769 42.7738 39.773 43.3012 39.232C43.8287 38.6911 44.125 37.9574 44.125 37.1923V26.6154C44.125 26.1054 43.9275 25.6162 43.5758 25.2556C43.2242 24.8949 42.7473 24.6923 42.25 24.6923V37.1923C42.25 37.4473 42.1512 37.6919 41.9754 37.8722C41.7996 38.0525 41.5611 38.1538 41.3125 38.1538C41.0639 38.1538 40.8254 38.0525 40.6496 37.8722C40.4738 37.6919 40.375 37.4473 40.375 37.1923V20.8462Z" fill="#01A560" fill-opacity="0.53"/>
</svg>
