<svg width="60" height="60" viewBox="0 0 60 60" fill="none" xmlns="http://www.w3.org/2000/svg">
<circle cx="30" cy="30" r="30" fill="white"/>
<path fill-rule="evenodd" clip-rule="evenodd" d="M28.667 37.8467V27.3848H31.3337V37.8467H28.667Z" fill="#01A560" fill-opacity="0.7"/>
<path fill-rule="evenodd" clip-rule="evenodd" d="M35.3327 33.9219H24.666V31.3064H35.3327V33.9219Z" fill="#01A560" fill-opacity="0.7"/>
<path fill-rule="evenodd" clip-rule="evenodd" d="M23.334 22.1517C23.334 19.985 25.1248 18.2285 27.334 18.2285H32.6673C34.8764 18.2285 36.6673 19.985 36.6673 22.1517V23.4595C36.6673 24.1817 36.0703 24.7672 35.334 24.7672H24.6673C23.9309 24.7672 23.334 24.1817 23.334 23.4595V22.1517ZM27.334 20.844C26.5976 20.844 26.0006 21.4295 26.0006 22.1517H34.0006C34.0006 21.4295 33.4037 20.844 32.6673 20.844H27.334Z" fill="#01A560" fill-opacity="0.7"/>
<path fill-rule="evenodd" clip-rule="evenodd" d="M15.334 26.0736C15.334 23.9069 17.1248 22.1504 19.334 22.1504H40.6673C42.8764 22.1504 44.6673 23.9069 44.6673 26.0736V40.4587C44.6673 42.6255 42.8764 44.3819 40.6673 44.3819H19.334C17.1248 44.3819 15.334 42.6255 15.334 40.4587V26.0736ZM19.334 24.7659C18.5976 24.7659 18.0006 25.3514 18.0006 26.0736V40.4587C18.0006 41.181 18.5976 41.7665 19.334 41.7665H40.6673C41.4036 41.7665 42.0006 41.181 42.0006 40.4587V26.0736C42.0006 25.3514 41.4036 24.7659 40.6673 24.7659H19.334Z" fill="#01A560" fill-opacity="0.7"/>
</svg>
