<svg width="60" height="60" viewBox="0 0 60 60" fill="none" xmlns="http://www.w3.org/2000/svg">
<circle cx="30" cy="30" r="30" fill="white"/>
<path d="M31.612 17.2053C31.4346 17.0722 31.216 17 30.991 17C30.766 17 30.5474 17.0722 30.37 17.2053L16 27.9795L17.243 29.4911L19 28.1738V40.0769C19.0011 40.5866 19.2121 41.0752 19.587 41.4356C19.9618 41.796 20.4699 41.999 21 42H41C41.5301 41.999 42.0382 41.796 42.413 41.4356C42.7879 41.0752 42.9989 40.5866 43 40.0769V28.1824L44.757 29.4997L46 27.9882L31.612 17.2053ZM33 40.0769H29V32.3844H33V40.0769ZM35 40.0769V32.3844C34.9995 31.8745 34.7886 31.3857 34.4136 31.0251C34.0387 30.6646 33.5303 30.4618 33 30.4613H29C28.4697 30.4618 27.9613 30.6646 27.5864 31.0251C27.2114 31.3857 27.0005 31.8745 27 32.3844V40.0769H21V26.6747L31 19.1842L41 26.6843V40.0769H35Z" fill="#01A560" fill-opacity="0.53"/>
</svg>
