<svg width="55" height="55" viewBox="0 0 55 55" fill="none" xmlns="http://www.w3.org/2000/svg">
<rect width="55" height="55" rx="27.5" fill="white" fill-opacity="0.04"/>
<path d="M28.0001 39H15.0002L15 37H24.8622C25.6341 33.5 22.1724 30.8772 19.7507 30.8772C20.3793 28.5 16.797 28.3901 15.0002 27.8738C15.8322 27.6438 16.7032 27.5 17.6002 27.5C23.3461 27.5 28.0001 32.6462 28.0001 39ZM41 27.8738C40.168 27.6438 39.297 27.5 38.4 27.5C34.591 27.5 31.2761 29.7713 29.4561 33.1494C30.2068 34.9878 30.5924 36.9828 30.5871 39H40.987L41 37H32.0345C31.138 33.5 33.2022 30 35.6207 30C36.7884 27.6212 39.2025 28.3918 41 27.8738ZM32.4828 25.6456C30.3378 22.0544 35.6084 20.5857 38.049 18.9037C32.4721 19.105 27.5516 25.2756 27.5516 31.5L28.0001 30.4038C29.2351 28.5781 29.2068 24.0634 32.4828 25.6456ZM26.207 23C25.6687 21.4364 25.1554 20.1028 24.1001 18.9037C23.0448 17.7047 22.509 16.6375 21.1101 16C22.9821 18.6737 24.8622 21.3631 24.8622 25C24.8622 25.3019 24.7797 25.9775 24.4139 26.5C25.6762 27.4775 25.7 29.0688 26.207 29.5C26.4851 27.8299 25.6341 25 26.207 23Z" fill="#01A560"/>
<rect x="0.5" y="0.5" width="54" height="54" rx="27" stroke="#01A560" stroke-opacity="0.4"/>
</svg>