<svg width="55" height="55" viewBox="0 0 55 55" fill="none" xmlns="http://www.w3.org/2000/svg">
<rect width="55" height="55" rx="27.5" fill="white" fill-opacity="0.04"/>
<path fill-rule="evenodd" clip-rule="evenodd" d="M21.5801 20.0216C20.2644 19.4962 18.8159 19.4295 17.4594 19.8321C16.1029 20.2346 14.9142 21.0838 14.0779 22.2479C13.2415 23.4119 12.8043 24.8257 12.834 26.2699C12.8637 27.7141 13.3586 29.1079 14.2421 30.235C15.1255 31.3621 16.348 32.1594 17.7199 32.5033C19.0917 32.8472 20.5362 32.7184 21.8292 32.1368C23.1221 31.5553 24.1912 30.5536 24.8706 29.2871C25.5499 28.0207 25.8015 26.5603 25.5863 25.1327C25.5494 24.887 25.6094 24.6363 25.7531 24.4359C25.8969 24.2355 26.1126 24.1016 26.3528 24.0639C26.5931 24.0261 26.8381 24.0875 27.0341 24.2345C27.2301 24.3815 27.361 24.6021 27.3979 24.8478C27.6743 26.6833 27.3505 28.5607 26.4769 30.1888C25.6033 31.8169 24.2286 33.1046 22.5663 33.8521C20.9039 34.5996 19.0468 34.765 17.2831 34.3228C15.5194 33.8805 13.9477 32.8553 12.812 31.4062C11.6763 29.9572 11.04 28.1652 11.0018 26.3085C10.9637 24.4518 11.5258 22.6341 12.6011 21.1375C13.6763 19.6409 15.2045 18.5491 16.9484 18.0315C18.6924 17.5139 20.5547 17.5994 22.2463 18.2748C22.3599 18.3184 22.4639 18.3846 22.5523 18.4697C22.6407 18.5547 22.7117 18.6568 22.7612 18.7702C22.8107 18.8835 22.8377 19.0057 22.8406 19.1298C22.8435 19.2539 22.8223 19.3773 22.7781 19.4929C22.734 19.6085 22.6679 19.714 22.5836 19.8033C22.4993 19.8926 22.3985 19.9638 22.287 20.0129C22.1756 20.062 22.0557 20.088 21.9343 20.0893C21.813 20.0906 21.6926 20.0673 21.5801 20.0207V20.0216Z" fill="#01A560"/>
<path fill-rule="evenodd" clip-rule="evenodd" d="M18.3311 42.063V34.566C18.3311 34.3175 18.4276 34.0791 18.5994 33.9034C18.7713 33.7276 19.0044 33.6289 19.2474 33.6289C19.4904 33.6289 19.7235 33.7276 19.8953 33.9034C20.0672 34.0791 20.1637 34.3175 20.1637 34.566V42.063C20.1637 42.3115 20.0672 42.5499 19.8953 42.7256C19.7235 42.9014 19.4904 43.0001 19.2474 43.0001C19.0044 43.0001 18.7713 42.9014 18.5994 42.7256C18.4276 42.5499 18.3311 42.3115 18.3311 42.063Z" fill="#01A560"/>
<path fill-rule="evenodd" clip-rule="evenodd" d="M15.582 37.3768C15.582 37.1282 15.6786 36.8899 15.8504 36.7141C16.0223 36.5384 16.2553 36.4397 16.4984 36.4397H21.9964C22.2394 36.4397 22.4725 36.5384 22.6443 36.7141C22.8161 36.8899 22.9127 37.1282 22.9127 37.3768C22.9127 37.6253 22.8161 37.8637 22.6443 38.0394C22.4725 38.2152 22.2394 38.3139 21.9964 38.3139H16.4984C16.2553 38.3139 16.0223 38.2152 15.8504 38.0394C15.6786 37.8637 15.582 37.6253 15.582 37.3768ZM31.9862 19.818C30.9707 19.5248 29.9002 19.4923 28.8695 19.7235C27.8388 19.9547 26.8798 20.4423 26.0775 21.1432C25.2751 21.844 24.6543 22.7365 24.2699 23.7415C23.8855 24.7465 23.7495 25.8329 23.8739 26.9045C23.8888 27.027 23.8798 27.1513 23.8476 27.2703C23.8153 27.3893 23.7604 27.5006 23.6859 27.5978C23.6115 27.695 23.5189 27.7762 23.4137 27.8367C23.3085 27.8972 23.1926 27.9359 23.0727 27.9505C22.9528 27.965 22.8313 27.9552 22.7151 27.9216C22.5989 27.888 22.4904 27.8312 22.3957 27.7546C22.3011 27.6779 22.2222 27.5829 22.1635 27.475C22.1049 27.367 22.0677 27.2483 22.0541 27.1256C21.84 25.2814 22.2271 23.4165 23.1553 21.8203C24.0836 20.224 25.501 18.9858 27.1877 18.2976C28.8745 17.6095 30.7361 17.5099 32.4838 18.0144C34.2315 18.5189 35.7675 19.5992 36.8535 21.0877C37.9394 22.5762 38.5146 24.3897 38.4898 26.2467C38.4649 28.1037 37.8414 29.9004 36.7161 31.358C35.5907 32.8155 34.0264 33.8525 32.2659 34.3079C30.5053 34.7633 28.647 34.6117 26.9794 33.8766C26.8688 33.828 26.7688 33.7575 26.6849 33.6693C26.601 33.5811 26.5349 33.4768 26.4904 33.3625C26.4005 33.1315 26.404 32.8736 26.5001 32.6453C26.5962 32.417 26.7771 32.2371 27.0029 32.1452C27.2287 32.0533 27.481 32.0569 27.7042 32.1552C28.5108 32.5127 29.3807 32.6968 30.2598 32.6962C31.1389 32.6955 32.0085 32.5101 32.8146 32.1514C33.6207 31.7928 34.3462 31.2685 34.9459 30.6111C35.5456 29.9537 36.0068 29.1773 36.3009 28.33C36.595 27.4828 36.7156 26.5827 36.6554 25.6858C36.5951 24.7889 36.3553 23.9141 35.9507 23.116C35.5461 22.3178 34.9854 21.6132 34.3034 21.0458C33.6214 20.4785 32.8327 20.0606 31.9862 19.818Z" fill="#01A560"/>
<path fill-rule="evenodd" clip-rule="evenodd" d="M35.5515 21.6405C35.3797 21.4648 35.2832 21.2265 35.2832 20.978C35.2832 20.7295 35.3797 20.4912 35.5515 20.3155L42.424 13.2871C42.5085 13.1976 42.6096 13.1262 42.7214 13.0771C42.8332 13.0279 42.9535 13.0021 43.0751 13.001C43.1968 12.9999 43.3175 13.0236 43.4301 13.0708C43.5427 13.1179 43.645 13.1875 43.731 13.2755C43.8171 13.3634 43.8851 13.4681 43.9312 13.5832C43.9773 13.6984 44.0004 13.8218 43.9994 13.9462C43.9983 14.0707 43.973 14.1936 43.925 14.308C43.877 14.4223 43.8072 14.5257 43.7197 14.6122L36.8472 21.6405C36.6753 21.8162 36.4423 21.9149 36.1993 21.9149C35.9564 21.9149 35.7233 21.8162 35.5515 21.6405Z" fill="#01A560"/>
<path fill-rule="evenodd" clip-rule="evenodd" d="M43.0017 19.572C42.8813 19.5704 42.7625 19.5446 42.6519 19.496C42.5413 19.4475 42.4412 19.3771 42.3572 19.2889C42.2732 19.2008 42.207 19.0966 42.1624 18.9823C42.1178 18.868 42.0957 18.7458 42.0972 18.6227L42.1431 14.8986L38.5016 14.9455C38.2585 14.9487 38.0242 14.8531 37.8501 14.6796C37.6761 14.5061 37.5765 14.2691 37.5733 14.0205C37.5702 13.772 37.6637 13.5323 37.8333 13.3543C38.0029 13.1763 38.2347 13.0745 38.4777 13.0712L43.9996 13L43.9299 18.6461C43.9285 18.7693 43.9033 18.8909 43.8559 19.0041C43.8084 19.1173 43.7397 19.2199 43.6534 19.3058C43.5672 19.3918 43.4653 19.4596 43.3535 19.5053C43.2416 19.5509 43.1221 19.5736 43.0017 19.572Z" fill="#01A560"/>
<rect x="0.5" y="0.5" width="54" height="54" rx="27" stroke="#01A560" stroke-opacity="0.4"/>
</svg>